<svg width="36" height="36" viewBox="0 0 36 36" fill="none" xmlns="http://www.w3.org/2000/svg">
<path d="M0 4.5C0 2.01472 2.01472 0 4.5 0H31.5C33.9853 0 36 2.01472 36 4.5V31.5C36 33.9853 33.9853 36 31.5 36H4.5C2.01472 36 0 33.9853 0 31.5V4.5Z" fill="#0A0A0A"/>
<path d="M20.8397 32.0625C17.3129 32.0625 15.7222 30.8609 15.7222 27.673V21.8613H13.9219V18.232H15.7222V15.2648H20.778V18.232H23.1702V21.8613H20.778V26.9006C20.778 27.9918 21.2713 28.4332 22.3071 28.4332C22.6893 28.4332 22.899 28.4087 23.1702 28.3719V31.8786C22.6277 31.9767 21.9125 32.0625 20.8397 32.0625Z" fill="white"/>
<path d="M24.5405 31.7682V21.8613H22.7401V18.232H24.5405V17.7048C24.5405 15.0074 25.8599 13.7812 29.7319 13.7812C30.5828 13.7812 31.5446 13.8793 32.0625 13.9897V16.9936C31.8282 16.9446 31.4706 16.9201 31.1377 16.9201C29.9292 16.9201 29.4483 17.337 29.4483 17.95V18.232H32.0625V21.8613H29.5963V31.7682H24.5405Z" fill="white"/>
</svg>
